<?xml version="1.0" standalone="no"?>
<!DOCTYPE svg PUBLIC "-//W3C//DTD SVG 20010904//EN"
 "http://www.w3.org/TR/2001/REC-SVG-20010904/DTD/svg10.dtd">
<svg version="1.0" xmlns="http://www.w3.org/2000/svg"
 width="91.000000pt" height="91.000000pt" viewBox="0 0 91.000000 91.000000"
 preserveAspectRatio="xMidYMid meet">

<g transform="translate(0.000000,91.000000) scale(0.100000,-0.100000)"
fill="#000000" stroke="none">
<path d="M0 718 l1 -193 22 67 c27 78 84 166 136 209 47 39 130 79 194 95 47
11 33 12 -150 13 l-203 1 0 -192z"/>
<path d="M440 788 c0 -144 -14 -249 -38 -298 -9 -19 -44 -56 -77 -83 -64 -51
-229 -157 -256 -164 -17 -5 -42 45 -59 119 -5 20 -8 -46 -9 -164 l-1 -198 193
1 c135 1 181 4 154 10 -82 19 -192 90 -246 157 l-32 41 48 31 c71 45 220 116
283 134 51 15 60 15 110 0 57 -17 221 -95 291 -140 l41 -25 -35 -42 c-47 -58
-145 -122 -220 -146 l-62 -20 193 0 192 -1 -1 198 c-1 118 -4 184 -9 164 -13
-54 -41 -122 -51 -122 -31 0 -270 161 -317 214 -45 51 -53 91 -59 284 -4 137
-8 172 -19 172 -11 0 -14 -25 -14 -122z"/>
<path d="M557 896 c165 -40 292 -164 335 -326 l17 -65 0 203 1 202 -202 -1
c-184 -1 -198 -2 -151 -13z"/>
</g>
</svg>
