<svg id="Calque_1" data-name="Calque 1" xmlns="http://www.w3.org/2000/svg" xmlns:xlink="http://www.w3.org/1999/xlink" viewBox="0 0 600 100"><defs><style>.cls-1,.cls-2{fill:none;}.cls-1{clip-rule:evenodd;}.cls-3{clip-path:url(#clip-path);}.cls-4{fill:#e93224;}.cls-5{clip-path:url(#clip-path-2);}.cls-6{clip-path:url(#clip-path-3);}.cls-7{fill:#fff;}.cls-8{clip-path:url(#clip-path-4);}.cls-9{fill:#ea5b2a;}.cls-10{clip-path:url(#clip-path-5);}.cls-11{clip-path:url(#clip-path-6);}.cls-12{clip-path:url(#clip-path-7);}.cls-13{clip-path:url(#clip-path-8);}.cls-14{clip-path:url(#clip-path-9);}.cls-15{clip-path:url(#clip-path-10);}.cls-16{clip-path:url(#clip-path-11);}</style><clipPath id="clip-path"><path class="cls-1" d="M25.12,36.8l0,.06h0s0-.08,0-.06"/></clipPath><clipPath id="clip-path-2"><path class="cls-1" d="M32.28,69.19,25.34,45.27,28,42.48l-2-7-7.06-1.74-5,5.26,2,7,5,1.23,6.59,22.7-4,3.86,1.91,7.63L33,83.58l5.65-5.48-1.92-7.64Zm20.23-8.6Q52.09,57,52,53.24c0-.92-.12-5.54-.18-6.83,0-.33,0-.67-.06-1l-1.09.71a.92.92,0,0,0-.36.37l-2.06,3.67L46.65,53l-3.06,5.46L38.43,67.6A1,1,0,0,0,39.27,69a.93.93,0,0,0,.47-.13l9.17-5.16,3.72-2.18C52.59,61.23,52.54,60.91,52.51,60.59ZM64.74,78.85C62,73,58.58,62.69,58.5,47.73c-.09-15.89-3.24-24.65-6.36-29.45L54,16.38l-2-7L44.87,7.66l-5,5.25,2,7,5.9,1.45c2.48,3.87,5.35,11.53,5.43,26.41.1,16.75,4.07,28,7.21,34.36l-1.72,2L61.09,91l7.14,1.35L73,86.82,70.57,80ZM98.1,51.68l-5.64-1.39L86.32,29.14,89.9,25.4l-2.2-7.56L80.06,16l-5.44,5.69,2.19,7.56,4.9,1.2,6.52,22.47L86,55.2l2,7,7.06,1.74,5-5.26ZM67.36,43.86l5.11-10.54c.46-1-.46-2.05-1.3-1.5l-9.08,5.92-2.55,1.78.09,1.14c0,.57.09,1.15.12,1.73l.6-.49L66.26,38c.54-.36,1.15.35.85,1L64,45.54l-1.41-.21-2.78-.91.11,3.16a13.15,13.15,0,0,1,1.58.22,9.71,9.71,0,0,1,1.2.43l-1.07,2.21-1.27,3.11L60.1,54c0,1,.09,2,.15,2.93,0,.42.06.82.08,1.23l.3-.19a1.05,1.05,0,0,0,.36-.42l1.58-3.75,1.54-3.18L64.9,49c2.69.65,9.32,2.17,9.32,2.17l3.26-3c-1.1-.52-7.06-1.52-11.11-2.15Z"/></clipPath><clipPath id="clip-path-3"><rect class="cls-2" x="13.89" y="7.66" width="86.24" height="84.69"/></clipPath><clipPath id="clip-path-4"><polygon class="cls-1" points="29.48 69.46 24.69 74.11 26.32 80.59 32.74 82.43 37.53 77.78 35.9 71.29 29.48 69.46"/></clipPath><clipPath id="clip-path-5"><polygon class="cls-1" points="86.88 18.7 80.39 17.1 75.78 21.93 77.64 28.35 84.12 29.94 88.74 25.12 86.88 18.7"/></clipPath><clipPath id="clip-path-6"><path class="cls-1" d="M60.41,82.12c-.2-.39-.39-.8-.59-1.24L38,75.57l.64,2.53-2.13,2.06,22.7,5.56-.56-1.6Z"/></clipPath><clipPath id="clip-path-7"><path class="cls-1" d="M85.89,50.9a42.09,42.09,0,0,0-4.26-1.64c-1.36-.45-2.75-.84-4.15-1.19l-3.26,3-.3-.07.83.27c.71.26,1.4.58,2.11.86s1.38.63,2.07,1,1.37.68,2,1.07,1.34.77,2,1.19,1.28.86,1.91,1.32,1.24.94,1.82,1.45l.26.24L86,55.2l2.22-2.32L88,51.94l0,0q-1-.54-2-1"/></clipPath><clipPath id="clip-path-8"><path class="cls-1" d="M88,62.19l-.49-1.68L69.24,79.7l1.33.25,1.36,3.9C77.09,78.5,86.19,69,91.81,63.12Z"/></clipPath><clipPath id="clip-path-9"><polygon class="cls-1" points="27.14 39.47 45.13 20.71 41.87 19.9 41.23 17.72 24.56 35.14 25.98 35.49 27.14 39.47"/></clipPath><clipPath id="clip-path-10"><path class="cls-1" d="M52.14,18.28q.27.42.54.87l22.84,5.59-.9-3.09,1.64-1.71L53.35,14.3l.6,2.08Z"/></clipPath><clipPath id="clip-path-11"><path class="cls-1" d="M31.72,46.5l.42.13c.76.27,1.53.39,2.29.58a20.1,20.1,0,0,0,2.29.44c.77.1,1.53.21,2.29.34s1.52.13,2.29.21,1.52.14,2.29.15,1.52,0,2.28,0l1.23,0h.2l1.4-2.51c-.93,0-1.86,0-2.78-.06a34.55,34.55,0,0,1-4.44-.4c-.74-.11-1.48-.18-2.21-.33s-1.45-.31-2.18-.49A20.15,20.15,0,0,1,35,44a17.64,17.64,0,0,1-2.11-.75c-.68-.31-1.38-.58-2-.94s-1.32-.72-2-1.12-1-.75-1.54-1.15L28,42.48l-2,2.05c.29.13.57.27.87.39a37.44,37.44,0,0,0,4.8,1.58"/></clipPath></defs><g class="cls-3"><rect class="cls-4" x="22.63" y="34.29" width="5.01" height="5.06"/></g><g class="cls-5"><g class="cls-6"><rect class="cls-7" x="11.4" y="5.17" width="91.22" height="89.67"/></g></g><g class="cls-8"><rect class="cls-9" x="22.2" y="66.97" width="17.82" height="17.95"/></g><g class="cls-10"><rect class="cls-9" x="73.28" y="14.61" width="17.95" height="17.82"/></g><g class="cls-11"><rect class="cls-9" x="34.06" y="73.08" width="28.84" height="15.14"/></g><g class="cls-12"><rect class="cls-9" x="71.43" y="45.58" width="19.29" height="15.31"/></g><g class="cls-13"><rect class="cls-9" x="66.75" y="58.02" width="27.55" height="28.32"/></g><g class="cls-14"><rect class="cls-9" x="22.07" y="15.23" width="25.56" height="26.74"/></g><g class="cls-15"><rect class="cls-9" x="49.65" y="11.81" width="29.1" height="15.42"/></g><g class="cls-16"><rect class="cls-9" x="23.56" y="37.55" width="27.63" height="13.36"/></g><path class="cls-7" d="M242.63,55.76a12.81,12.81,0,0,1-.95,5,11.66,11.66,0,0,1-2.59,3.92,11.93,11.93,0,0,1-3.93,2.58,13.12,13.12,0,0,1-4.94.93H215.71a2.74,2.74,0,0,1-1.08-.21,2.6,2.6,0,0,1-1.43-1.43,2.91,2.91,0,0,1-.2-1.07V41.22a2.71,2.71,0,0,1,.77-1.92,2.56,2.56,0,0,1,.86-.58,2.92,2.92,0,0,1,1.08-.2h14.51a12.93,12.93,0,0,1,4.94.93,11.58,11.58,0,0,1,6.52,6.5,12.87,12.87,0,0,1,.95,5Zm-5.38-4.84a7.8,7.8,0,0,0-.51-2.87,6.11,6.11,0,0,0-1.43-2.22,6.38,6.38,0,0,0-2.23-1.43,7.7,7.7,0,0,0-2.86-.51H218.37v18.9h11.85a7.7,7.7,0,0,0,2.86-.51,6.36,6.36,0,0,0,2.23-1.42,6.25,6.25,0,0,0,1.43-2.21,7.86,7.86,0,0,0,.51-2.89Z"/><path class="cls-7" d="M277,65.46a2.72,2.72,0,0,1-.21,1.07,2.56,2.56,0,0,1-.58.86,2.85,2.85,0,0,1-.87.57,2.66,2.66,0,0,1-1.05.21H262.12a16.61,16.61,0,0,1-3.47-.38,15.28,15.28,0,0,1-3.4-1.14,14.48,14.48,0,0,1-3.09-2,13.07,13.07,0,0,1-2.54-2.84,13.9,13.9,0,0,1-1.7-3.76,16.62,16.62,0,0,1-.62-4.73V38.52h5.37V53.34a10.38,10.38,0,0,0,.63,3.85,8.49,8.49,0,0,0,1.61,2.62A7.41,7.41,0,0,0,257,61.47a11.8,11.8,0,0,0,2.2.89,11,11,0,0,0,1.84.36c.53.05.88.07,1,.07h9.45V38.52H277Z"/><path class="cls-7" d="M326.59,65.87a2.53,2.53,0,0,1-.22,1.07,2.66,2.66,0,0,1-1.44,1.43,2.66,2.66,0,0,1-1.05.21,2.73,2.73,0,0,1-1-.19,2.23,2.23,0,0,1-.9-.6L302.34,47.28V68.17H297V40.81a2.52,2.52,0,0,1,.47-1.5,2.92,2.92,0,0,1,1.18-1,2.76,2.76,0,0,1,1.58-.16,2.6,2.6,0,0,1,1.38.76L321.21,59.4V38.52h5.38Z"/><path class="cls-7" d="M361.88,65.46a2.72,2.72,0,0,1-.21,1.07,2.54,2.54,0,0,1-.57.86,2.85,2.85,0,0,1-.87.57,2.67,2.67,0,0,1-1.06.21H347.06a16.63,16.63,0,0,1-3.48-.38,15.46,15.46,0,0,1-3.4-1.14,15,15,0,0,1-3.09-2,13,13,0,0,1-2.53-2.84,14.23,14.23,0,0,1-1.71-3.76,17,17,0,0,1-.62-4.73V38.52h5.38V53.34a10.38,10.38,0,0,0,.63,3.85,8.47,8.47,0,0,0,1.6,2.62A7.69,7.69,0,0,0,342,61.47a12.08,12.08,0,0,0,2.2.89,11.14,11.14,0,0,0,1.84.36c.53.05.88.07,1.05.07h9.45V38.52h5.37Z"/><path class="cls-7" d="M402.63,68.17h-5.41V50.51l-9.54,16.77a2.35,2.35,0,0,1-1,1,2.87,2.87,0,0,1-1.35.33,2.75,2.75,0,0,1-1.32-.33,2.49,2.49,0,0,1-1-1L373.5,50.51V68.17h-5.37V40.81a2.67,2.67,0,0,1,2-2.62,2.86,2.86,0,0,1,.87-.08,3.41,3.41,0,0,1,.84.19,2.7,2.7,0,0,1,.73.43,2.49,2.49,0,0,1,.56.68l12.24,21.27,12.24-21.27a2.6,2.6,0,0,1,1.31-1.12,2.82,2.82,0,0,1,1.75-.1,2.65,2.65,0,0,1,1.42,1,2.58,2.58,0,0,1,.56,1.65Z"/><path class="cls-7" d="M435.67,68.17H416.28a8.67,8.67,0,0,1-2.44-.4,7.14,7.14,0,0,1-2.45-1.29,7.28,7.28,0,0,1-1.88-2.33,7.46,7.46,0,0,1-.76-3.53V41.22a2.66,2.66,0,0,1,.21-1,2.85,2.85,0,0,1,.57-.87,2.56,2.56,0,0,1,.86-.58,2.91,2.91,0,0,1,1.07-.2h24.21v5.37H414.13V60.62a2,2,0,0,0,2.19,2.17h19.35Zm-2.42-12.12h-17V50.63h17Zm1.62-24.19-10.8,3.87-1.42-3.11,9.94-5.79Z"/><path class="cls-7" d="M470.49,48.48a10.72,10.72,0,0,1-.46,3.29,9,9,0,0,1-1.23,2.55,8.73,8.73,0,0,1-1.78,1.9,11.45,11.45,0,0,1-2.12,1.29,9.94,9.94,0,0,1-2.24.73,10.8,10.8,0,0,1-2.12.23l11.23,9.7h-8.31l-11.21-9.7h-3.86V53.09h12.15a5.9,5.9,0,0,0,1.85-.42,4.49,4.49,0,0,0,1.45-.92,3.88,3.88,0,0,0,.94-1.4,4.92,4.92,0,0,0,.33-1.87V45.09a1.6,1.6,0,0,0-.11-.69.79.79,0,0,0-.29-.35.89.89,0,0,0-.37-.14l-.36,0H446.24V68.17h-5.38V41.22a2.66,2.66,0,0,1,.21-1,2.85,2.85,0,0,1,.57-.87,2.47,2.47,0,0,1,.86-.58,2.87,2.87,0,0,1,1.07-.2H464a6.41,6.41,0,0,1,3,.65,6.27,6.27,0,0,1,2,1.63,6.38,6.38,0,0,1,1.12,2.12,7.36,7.36,0,0,1,.34,2.13Z"/><path class="cls-7" d="M481.3,68.17h-5.37V38.52h5.37Z"/><path class="cls-7" d="M518.7,56.17a13.72,13.72,0,0,1-.54,3.9,12.49,12.49,0,0,1-1.55,3.32A11.34,11.34,0,0,1,511,67.75l6.29,5h-7.79l-5.17-4.15h-5.3a13.16,13.16,0,0,1-4.94-.92,11.8,11.8,0,0,1-3.93-2.57,12.17,12.17,0,0,1-2.59-3.93,12.89,12.89,0,0,1-.94-5V50.51a12.86,12.86,0,0,1,.94-5,11.58,11.58,0,0,1,6.52-6.5,12.78,12.78,0,0,1,4.94-.94h7.28a12.66,12.66,0,0,1,4.93.94,11.54,11.54,0,0,1,6.5,6.5,13,13,0,0,1,.93,5Zm-5.37-5.66a7.86,7.86,0,0,0-.51-2.89A6.16,6.16,0,0,0,509.18,44a7.67,7.67,0,0,0-2.84-.51h-7.28a7.74,7.74,0,0,0-2.86.51,6.26,6.26,0,0,0-3.66,3.63,7.86,7.86,0,0,0-.51,2.89v5.66a7.83,7.83,0,0,0,.51,2.89A6.32,6.32,0,0,0,494,61.27a6.58,6.58,0,0,0,2.22,1.43,7.74,7.74,0,0,0,2.86.5h7.24a7.7,7.7,0,0,0,2.86-.5,6.62,6.62,0,0,0,2.23-1.43,6.16,6.16,0,0,0,1.43-2.21,7.83,7.83,0,0,0,.51-2.89Z"/><path class="cls-7" d="M553.07,65.46a2.72,2.72,0,0,1-.21,1.07,2.56,2.56,0,0,1-.58.86,2.85,2.85,0,0,1-.87.57,2.66,2.66,0,0,1-1,.21H538.24a16.61,16.61,0,0,1-3.47-.38,15.46,15.46,0,0,1-3.4-1.14,14.48,14.48,0,0,1-3.09-2,13.07,13.07,0,0,1-2.54-2.84,13.9,13.9,0,0,1-1.7-3.76,17,17,0,0,1-.62-4.73V38.52h5.37V53.34a10.38,10.38,0,0,0,.63,3.85A8.68,8.68,0,0,0,531,59.81a7.55,7.55,0,0,0,2.13,1.66,11.8,11.8,0,0,0,2.2.89,11.14,11.14,0,0,0,1.84.36c.53.05.88.07,1,.07h9.45V38.52h5.38Z"/><path class="cls-7" d="M586.11,68.17h-19.4a8.79,8.79,0,0,1-2.44-.4,7.14,7.14,0,0,1-2.45-1.29,7.42,7.42,0,0,1-1.88-2.33,7.58,7.58,0,0,1-.75-3.53V41.22A2.71,2.71,0,0,1,560,39.3a2.56,2.56,0,0,1,.86-.58,2.92,2.92,0,0,1,1.08-.2h24.21v5.37H564.56V60.62a2,2,0,0,0,2.19,2.17h19.36Zm-2.42-12.12h-17V50.63h17Z"/><path class="cls-9" d="M159.37,68.17H154V60.89H135.1v7.28h-5.37V53.34a15.7,15.7,0,0,1,1.11-6,13.78,13.78,0,0,1,7.8-7.76,15.58,15.58,0,0,1,5.91-1.09h12.12a2.84,2.84,0,0,1,1.05.2,2.67,2.67,0,0,1,1.45,1.45,2.65,2.65,0,0,1,.2,1ZM135.1,55.51H154V43.89h-9.45c-.16,0-.51,0-1,.08a9.25,9.25,0,0,0-1.84.36,11.48,11.48,0,0,0-2.21.89,7.65,7.65,0,0,0-2.13,1.65,8.53,8.53,0,0,0-1.6,2.64,10.34,10.34,0,0,0-.63,3.83Z"/><path class="cls-9" d="M194.11,59.44a9.69,9.69,0,0,1-.4,2.86,8.68,8.68,0,0,1-1.07,2.25,7,7,0,0,1-1.55,1.65A9.26,9.26,0,0,1,187.32,68a8.89,8.89,0,0,1-1.85.21H164.73V62.79h20.74a3.16,3.16,0,0,0,2.41-.91,3.42,3.42,0,0,0,.85-2.44,3.92,3.92,0,0,0-.22-1.36,3.2,3.2,0,0,0-.66-1.08,2.77,2.77,0,0,0-1-.7,3.49,3.49,0,0,0-1.35-.25H173.1a10,10,0,0,1-2.81-.46,8.65,8.65,0,0,1-2.8-1.5,8.25,8.25,0,0,1-2.15-2.71,8.94,8.94,0,0,1-.86-4.1,8.86,8.86,0,0,1,.86-4.08,8.36,8.36,0,0,1,2.15-2.71,8.49,8.49,0,0,1,2.8-1.51,9.62,9.62,0,0,1,2.81-.46h18.3v5.37H173.1a3.07,3.07,0,0,0-2.38.93,3.45,3.45,0,0,0-.86,2.46,3.36,3.36,0,0,0,.86,2.45,3.12,3.12,0,0,0,2.38.9h12.41a10.45,10.45,0,0,1,1.84.24,9,9,0,0,1,1.93.67,9.83,9.83,0,0,1,1.83,1.15,7.89,7.89,0,0,1,1.54,1.66,8.15,8.15,0,0,1,1.07,2.24A9.63,9.63,0,0,1,194.11,59.44Z"/></svg>